<?xml version="1.0" encoding="UTF-8" standalone="no"?><svg xmlns="http://www.w3.org/2000/svg" xmlns:xlink="http://www.w3.org/1999/xlink" contentStyleType="text/css" height="404px" preserveAspectRatio="none" style="width:2483px;height:404px;background:#FFFFFF;" version="1.1" viewBox="0 0 2483 404" width="2483px" zoomAndPan="magnify"><defs/><g><g id="3"><rect fill="#F1F1F1" height="64.2344" rx="12.5" ry="12.5" style="stroke:#181818;stroke-width:0.5;" width="235" x="7" y="334"/><line style="stroke:#181818;stroke-width:0.5;" x1="7" x2="242" y1="360.2969" y2="360.2969"/><text fill="#000000" font-family="sans-serif" font-size="14" lengthAdjust="spacing" textLength="9" x="120" y="351.9951">3</text><text fill="#000000" font-family="sans-serif" font-size="12" lengthAdjust="spacing" textLength="198" x="12" y="376.4355">Wrap existing Clash.Cores.UART</text><text fill="#000000" font-family="sans-serif" font-size="12" lengthAdjust="spacing" textLength="215" x="12" y="390.4043">transmit in PacketStream Protocol</text></g><g id="22"><rect fill="#F1F1F1" height="64.2344" rx="12.5" ry="12.5" style="stroke:#181818;stroke-width:0.5;" width="228" x="280.5" y="334"/><line style="stroke:#181818;stroke-width:0.5;" x1="280.5" x2="508.5" y1="360.2969" y2="360.2969"/><text fill="#000000" font-family="sans-serif" font-size="14" lengthAdjust="spacing" textLength="18" x="385.5" y="351.9951">22</text><text fill="#000000" font-family="sans-serif" font-size="12" lengthAdjust="spacing" textLength="198" x="285.5" y="376.4355">Wrap existing Clash.Cores.UART</text><text fill="#000000" font-family="sans-serif" font-size="12" lengthAdjust="spacing" textLength="208" x="285.5" y="390.4043">receive in PacketStream Protocol</text></g><g id="21"><rect fill="#F1F1F1" height="50.2656" rx="12.5" ry="12.5" style="stroke:#181818;stroke-width:0.5;" width="209" x="544" y="341"/><line style="stroke:#181818;stroke-width:0.5;" x1="544" x2="753" y1="367.2969" y2="367.2969"/><text fill="#000000" font-family="sans-serif" font-size="14" lengthAdjust="spacing" textLength="18" x="639.5" y="358.9951">21</text><text fill="#000000" font-family="sans-serif" font-size="12" lengthAdjust="spacing" textLength="189" x="549" y="383.4355">Implement UART Packet buffer</text></g><g id="20"><rect fill="#F1F1F1" height="64.2344" rx="12.5" ry="12.5" style="stroke:#181818;stroke-width:0.5;" width="229" x="10" y="86"/><line style="stroke:#181818;stroke-width:0.5;" x1="10" x2="239" y1="112.2969" y2="112.2969"/><text fill="#000000" font-family="sans-serif" font-size="14" lengthAdjust="spacing" textLength="18" x="115.5" y="103.9951">20</text><text fill="#000000" font-family="sans-serif" font-size="12" lengthAdjust="spacing" textLength="209" x="15" y="128.4355">Connect UART PacketStream sink</text><text fill="#000000" font-family="sans-serif" font-size="12" lengthAdjust="spacing" textLength="104" x="15" y="142.4043">to RGMII receiver</text></g><g id="19"><rect fill="#F1F1F1" height="64.2344" rx="12.5" ry="12.5" style="stroke:#181818;stroke-width:0.5;" width="247" x="274" y="86"/><line style="stroke:#181818;stroke-width:0.5;" x1="274" x2="521" y1="112.2969" y2="112.2969"/><text fill="#000000" font-family="sans-serif" font-size="14" lengthAdjust="spacing" textLength="18" x="388.5" y="103.9951">19</text><text fill="#000000" font-family="sans-serif" font-size="12" lengthAdjust="spacing" textLength="227" x="279" y="128.4355">Connect UART PacketStream source</text><text fill="#000000" font-family="sans-serif" font-size="12" lengthAdjust="spacing" textLength="124" x="279" y="142.4043">to RGMII transmitter</text></g><g id="17"><rect fill="#F1F1F1" height="64.2344" rx="12.5" ry="12.5" style="stroke:#181818;stroke-width:0.5;" width="249" x="274" y="210"/><line style="stroke:#181818;stroke-width:0.5;" x1="274" x2="523" y1="236.2969" y2="236.2969"/><text fill="#000000" font-family="sans-serif" font-size="14" lengthAdjust="spacing" textLength="18" x="389.5" y="227.9951">17</text><text fill="#000000" font-family="sans-serif" font-size="12" lengthAdjust="spacing" textLength="229" x="279" y="252.4355">Connect UART packet buffer to UART</text><text fill="#000000" font-family="sans-serif" font-size="12" lengthAdjust="spacing" textLength="199" x="279" y="266.4043">receive to create PacketStream</text></g><g id="18"><rect fill="#F1F1F1" height="64.2344" rx="12.5" ry="12.5" style="stroke:#181818;stroke-width:0.5;" width="228" x="10.5" y="210"/><line style="stroke:#181818;stroke-width:0.5;" x1="10.5" x2="238.5" y1="236.2969" y2="236.2969"/><text fill="#000000" font-family="sans-serif" font-size="14" lengthAdjust="spacing" textLength="18" x="115.5" y="227.9951">18</text><text fill="#000000" font-family="sans-serif" font-size="12" lengthAdjust="spacing" textLength="208" x="15.5" y="252.4355">Connect FIFO to UART transmit to</text><text fill="#000000" font-family="sans-serif" font-size="12" lengthAdjust="spacing" textLength="149" x="15.5" y="266.4043">consume PacketStream</text></g><g id="1"><rect fill="#F1F1F1" height="50.2656" rx="12.5" ry="12.5" style="stroke:#181818;stroke-width:0.5;" width="232" x="556.5" y="93"/><line style="stroke:#181818;stroke-width:0.5;" x1="556.5" x2="788.5" y1="119.2969" y2="119.2969"/><text fill="#000000" font-family="sans-serif" font-size="14" lengthAdjust="spacing" textLength="9" x="668" y="110.9951">1</text><text fill="#000000" font-family="sans-serif" font-size="12" lengthAdjust="spacing" textLength="212" x="561.5" y="135.4355">Create clash-protocols async FIFO</text></g><g id="4"><rect fill="#F1F1F1" height="50.2656" rx="12.5" ry="12.5" style="stroke:#181818;stroke-width:0.5;" width="194" x="823.5" y="93"/><line style="stroke:#181818;stroke-width:0.5;" x1="823.5" x2="1017.5" y1="119.2969" y2="119.2969"/><text fill="#000000" font-family="sans-serif" font-size="14" lengthAdjust="spacing" textLength="9" x="916" y="110.9951">4</text><text fill="#000000" font-family="sans-serif" font-size="12" lengthAdjust="spacing" textLength="174" x="828.5" y="135.4355">Create stream up converter</text></g><g id="14"><rect fill="#F1F1F1" height="50.2656" rx="12.5" ry="12.5" style="stroke:#181818;stroke-width:0.5;" width="211" x="1053" y="93"/><line style="stroke:#181818;stroke-width:0.5;" x1="1053" x2="1264" y1="119.2969" y2="119.2969"/><text fill="#000000" font-family="sans-serif" font-size="14" lengthAdjust="spacing" textLength="18" x="1149.5" y="110.9951">14</text><text fill="#000000" font-family="sans-serif" font-size="12" lengthAdjust="spacing" textLength="191" x="1058" y="135.4355">Create stream down converter</text></g><g id="29"><rect fill="#F1F1F1" height="50.2656" rx="12.5" ry="12.5" style="stroke:#181818;stroke-width:0.5;" width="288" x="1299.5" y="93"/><line style="stroke:#181818;stroke-width:0.5;" x1="1299.5" x2="1587.5" y1="119.2969" y2="119.2969"/><text fill="#000000" font-family="sans-serif" font-size="14" lengthAdjust="spacing" textLength="18" x="1434.5" y="110.9951">29</text><text fill="#000000" font-family="sans-serif" font-size="12" lengthAdjust="spacing" textLength="268" x="1304.5" y="135.4355">Implement PacketStream RGMII transmitter</text></g><g id="31"><rect fill="#F1F1F1" height="50.2656" rx="12.5" ry="12.5" style="stroke:#181818;stroke-width:0.5;" width="268" x="1622.5" y="93"/><line style="stroke:#181818;stroke-width:0.5;" x1="1622.5" x2="1890.5" y1="119.2969" y2="119.2969"/><text fill="#000000" font-family="sans-serif" font-size="14" lengthAdjust="spacing" textLength="18" x="1747.5" y="110.9951">31</text><text fill="#000000" font-family="sans-serif" font-size="12" lengthAdjust="spacing" textLength="248" x="1627.5" y="135.4355">Implement PacketStream RGMII receiver</text></g><g id="23"><rect fill="#F1F1F1" height="50.2656" rx="12.5" ry="12.5" style="stroke:#181818;stroke-width:0.5;" width="242" x="1925.5" y="93"/><line style="stroke:#181818;stroke-width:0.5;" x1="1925.5" x2="2167.5" y1="119.2969" y2="119.2969"/><text fill="#000000" font-family="sans-serif" font-size="14" lengthAdjust="spacing" textLength="18" x="2037.5" y="110.9951">23</text><text fill="#000000" font-family="sans-serif" font-size="12" lengthAdjust="spacing" textLength="222" x="1930.5" y="135.4355">Implement interpacket gap inserter</text></g><g id="36"><rect fill="#F1F1F1" height="50.2656" rx="12.5" ry="12.5" style="stroke:#181818;stroke-width:0.5;" width="273" x="2203" y="93"/><line style="stroke:#181818;stroke-width:0.5;" x1="2203" x2="2476" y1="119.2969" y2="119.2969"/><text fill="#000000" font-family="sans-serif" font-size="14" lengthAdjust="spacing" textLength="18" x="2330.5" y="110.9951">36</text><text fill="#000000" font-family="sans-serif" font-size="12" lengthAdjust="spacing" textLength="253" x="2208" y="135.4355">Create initial hardware python test suite</text></g><ellipse cx="1158.5" cy="16" fill="#222222" rx="10" ry="10" style="stroke:none;stroke-width:1.0;"/><!--MD5=[9a597279a31d8eb6c574cfe72e02e3fb]
link *start to 23--><g id="link_*start_23"><path d="M1168.71,17.44 C1234.74,20.4 1608.2,38.66 1908.5,86 C1918.24,87.54 1928.32,89.35 1938.4,91.32 " fill="none" id="*start-to-23" style="stroke:#181818;stroke-width:1.0;"/><polygon fill="#181818" points="1943.18,92.28,1935.1265,86.6106,1938.2749,91.3104,1933.5752,94.4588,1943.18,92.28" style="stroke:#181818;stroke-width:1.0;"/></g><!--MD5=[5152f8c52dd068be463a3bf09f88ce6b]
link *start to 31--><g id="link_*start_31"><path d="M1168.6,18.37 C1217.14,25 1431.22,54.68 1605.5,86 C1614.79,87.67 1624.39,89.47 1634.03,91.33 " fill="none" id="*start-to-31" style="stroke:#181818;stroke-width:1.0;"/><polygon fill="#181818" points="1638.89,92.27,1630.8238,86.6188,1633.9827,91.3114,1629.2901,94.4704,1638.89,92.27" style="stroke:#181818;stroke-width:1.0;"/></g><!--MD5=[2c64e209a74ae3e6bd1944e9891030ce]
link *start to 29--><g id="link_*start_29"><path d="M1167.98,20.33 C1198.7,31.11 1297.58,65.8 1368.08,90.54 " fill="none" id="*start-to-29" style="stroke:#181818;stroke-width:1.0;"/><polygon fill="#181818" points="1372.52,92.1,1365.3558,85.3417,1367.8029,90.4419,1362.7028,92.889,1372.52,92.1" style="stroke:#181818;stroke-width:1.0;"/></g><!--MD5=[cac271f3be1e785c43165d57a8127129]
link *start to 4--><g id="link_*start_4"><path d="M1149.46,20.8 C1122.78,32.01 1042.62,65.69 984.66,90.04 " fill="none" id="*start-to-4" style="stroke:#181818;stroke-width:1.0;"/><polygon fill="#181818" points="980.17,91.93,990.0169,92.124,984.7782,89.9897,986.9125,84.7509,980.17,91.93" style="stroke:#181818;stroke-width:1.0;"/></g><!--MD5=[957f4f6b08d09ce0888749add010a4ec]
link *start to 14--><g id="link_*start_14"><path d="M1158.5,26.23 C1158.5,39.75 1158.5,65.59 1158.5,86.26 " fill="none" id="*start-to-14" style="stroke:#181818;stroke-width:1.0;"/><polygon fill="#181818" points="1158.5,91.25,1162.5,82.25,1158.5,86.25,1154.5,82.25,1158.5,91.25" style="stroke:#181818;stroke-width:1.0;"/></g><!--MD5=[90920f5114a235e1da45e73b7391e34a]
link *start to 1--><g id="link_*start_1"><path d="M1148.68,18.8 C1107.12,26.44 941.7,57.12 806.5,86 C798.78,87.65 790.81,89.39 782.8,91.17 " fill="none" id="*start-to-1" style="stroke:#181818;stroke-width:1.0;"/><polygon fill="#181818" points="778.14,92.21,787.7988,94.1355,783.0179,91.1118,786.0416,86.3309,778.14,92.21" style="stroke:#181818;stroke-width:1.0;"/></g><!--MD5=[6e095439e2ae71ab89170e631736e95c]
link *start to 19--><g id="link_*start_19"><path d="M1148.24,17.74 C1089,22.11 784.91,45.65 539.5,86 C535.58,86.64 531.6,87.33 527.59,88.04 " fill="none" id="*start-to-19" style="stroke:#181818;stroke-width:1.0;"/><polygon fill="#181818" points="522.76,88.92,532.3321,91.2382,527.6787,88.0218,530.895,83.3683,522.76,88.92" style="stroke:#181818;stroke-width:1.0;"/></g><!--MD5=[5ab013e295edabca103f1ee75ba1b92d]
link *start to 20--><g id="link_*start_20"><path d="M1148.18,17.19 C1074.49,18.64 620.46,29.69 256.5,86 C252.92,86.55 249.3,87.15 245.65,87.79 " fill="none" id="*start-to-20" style="stroke:#181818;stroke-width:1.0;"/><polygon fill="#181818" points="240.97,88.63,250.5356,90.975,245.8912,87.7456,249.1206,83.1012,240.97,88.63" style="stroke:#181818;stroke-width:1.0;"/></g><!--MD5=[2641c5357a65c4324cdced25754bf164]
link *start to 36--><g id="link_*start_36"><path d="M1168.92,17.18 C1248.49,18.66 1767.93,30.19 2185.5,86 C2196.89,87.52 2208.71,89.38 2220.5,91.43 " fill="none" id="*start-to-36" style="stroke:#181818;stroke-width:1.0;"/><polygon fill="#181818" points="2225.18,92.26,2217.0139,86.7541,2220.2564,91.3894,2215.621,94.6319,2225.18,92.26" style="stroke:#181818;stroke-width:1.0;"/></g><!--MD5=[c9be4c2c104608356009f4627620a4b1]
link 17 to 21--><g id="link_17_21"><path d="M462.88,274.42 C503.15,294.07 554.48,319.12 592.96,337.9 " fill="none" id="17-to-21" style="stroke:#181818;stroke-width:1.0;"/><polygon fill="#181818" points="597.18,339.95,590.8415,332.4119,592.6852,337.7599,587.3372,339.6036,597.18,339.95" style="stroke:#181818;stroke-width:1.0;"/></g><!--MD5=[9e5946b22a5505f55f4d804a719ec03e]
link 17 to 22--><g id="link_17_22"><path d="M397.47,274.42 C396.94,290.64 396.29,310.55 395.73,327.56 " fill="none" id="17-to-22" style="stroke:#181818;stroke-width:1.0;"/><polygon fill="#181818" points="395.58,332.18,399.886,323.3223,395.7513,327.1829,391.8907,323.0482,395.58,332.18" style="stroke:#181818;stroke-width:1.0;"/></g><!--MD5=[4102e3eacf09df101507ae978ed27b5f]
link 19 to 17--><g id="link_19_17"><path d="M397.76,150.42 C397.89,166.64 398.05,186.55 398.19,203.56 " fill="none" id="19-to-17" style="stroke:#181818;stroke-width:1.0;"/><polygon fill="#181818" points="398.23,208.17,402.1527,199.136,398.1871,203.1702,394.153,199.2046,398.23,208.17" style="stroke:#181818;stroke-width:1.0;"/></g><!--MD5=[cff17592e87cfcfd5cfb5b7d261b49d1]
link 18 to 3--><g id="link_18_3"><path d="M124.5,274.42 C124.5,290.64 124.5,310.55 124.5,327.56 " fill="none" id="18-to-3" style="stroke:#181818;stroke-width:1.0;"/><polygon fill="#181818" points="124.5,332.17,128.5,323.17,124.5,327.17,120.5,323.17,124.5,332.17" style="stroke:#181818;stroke-width:1.0;"/></g><!--MD5=[833cd40bb5afa99078cd222ccfb5fc69]
link 20 to 18--><g id="link_20_18"><path d="M124.5,150.42 C124.5,166.64 124.5,186.55 124.5,203.56 " fill="none" id="20-to-18" style="stroke:#181818;stroke-width:1.0;"/><polygon fill="#181818" points="124.5,208.17,128.5,199.17,124.5,203.17,120.5,199.17,124.5,208.17" style="stroke:#181818;stroke-width:1.0;"/></g><!--MD5=[f41ddf3d371ffdb0ac6b34aa6be85590]
@startuml
3 : Wrap existing Clash.Cores.UART\ntransmit in PacketStream Protocol
22 : Wrap existing Clash.Cores.UART\nreceive in PacketStream Protocol

21 : Implement UART Packet buffer

20 : Connect UART PacketStream sink\nto RGMII receiver
19 : Connect UART PacketStream source\nto RGMII transmitter

17 : Connect UART packet buffer to UART\nreceive to create PacketStream
18 : Connect FIFO to UART transmit to\nconsume PacketStream

1 : Create clash-protocols async FIFO
4 : Create stream up converter
14 : Create stream down converter
29 : Implement PacketStream RGMII transmitter
31 : Implement PacketStream RGMII receiver
23 : Implement interpacket gap inserter
36 : Create initial hardware python test suite

[*] - -> 23
[*] - -> 31
[*] - -> 29
[*] - -> 4
[*] - -> 14
[*] - -> 1
[*] - -> 19
[*] - -> 20
[*] - -> 36

17 - -> 21
17 - -> 22
19 - -> 17

18 - -> 3
20 - -> 18
@enduml

PlantUML version 1.2022.12(Sun Oct 23 20:12:26 CEST 2022)
(GPL source distribution)
Java Runtime: OpenJDK Runtime Environment
JVM: OpenJDK 64-Bit Server VM
Default Encoding: UTF-8
Language: en
Country: US
--></g></svg>